<mxfile host="app.diagrams.net" agent="Mozilla/5.0 (Macintosh; Intel Mac OS X 10_15_7) AppleWebKit/537.36 (KHTML, like Gecko) Chrome/133.0.0.0 Safari/537.36" version="26.1.0">
  <diagram id="SZLrVrYssG641vImuK1C" name="Page-1">
    <mxGraphModel dx="1584" dy="767" grid="1" gridSize="10" guides="1" tooltips="1" connect="1" arrows="1" fold="1" page="1" pageScale="1" pageWidth="150" pageHeight="100" math="0" shadow="0">
      <root>
        <mxCell id="0" />
        <mxCell id="1" parent="0" />
        <mxCell id="CcEEF7Ig4hNzmsdr6lzL-4" value="" style="rounded=1;whiteSpace=wrap;html=1;strokeWidth=2;fillColor=none;" parent="1" vertex="1">
          <mxGeometry x="-120" y="190" width="320" height="280" as="geometry" />
        </mxCell>
        <mxCell id="CcEEF7Ig4hNzmsdr6lzL-6" value="&lt;b style=&quot;font-size: 11px;&quot;&gt;Prod S2CS&lt;/b&gt;" style="rounded=1;whiteSpace=wrap;html=1;fillColor=#f6b26bff;fontSize=11;" parent="1" vertex="1">
          <mxGeometry x="80" y="269.13" width="80" height="40" as="geometry" />
        </mxCell>
        <mxCell id="CcEEF7Ig4hNzmsdr6lzL-7" value="&lt;b style=&quot;font-size: 11px;&quot;&gt;ProdApp Controller&lt;/b&gt;" style="rounded=1;whiteSpace=wrap;html=1;fillColor=#b4a7d6ff;fontSize=11;" parent="1" vertex="1">
          <mxGeometry x="-80" y="269.13" width="80" height="40" as="geometry" />
        </mxCell>
        <mxCell id="CcEEF7Ig4hNzmsdr6lzL-8" value="" style="rounded=1;whiteSpace=wrap;html=1;fillColor=#d9d2e9ff;" parent="1" vertex="1">
          <mxGeometry x="-90" y="380" width="80" height="40" as="geometry" />
        </mxCell>
        <mxCell id="CcEEF7Ig4hNzmsdr6lzL-9" value="" style="rounded=1;whiteSpace=wrap;html=1;fillColor=#d9d2e9ff;" parent="1" vertex="1">
          <mxGeometry x="-80" y="390" width="80" height="40" as="geometry" />
        </mxCell>
        <mxCell id="CcEEF7Ig4hNzmsdr6lzL-10" value="&lt;b style=&quot;font-size: 11px;&quot;&gt;ProdApp&lt;/b&gt;" style="rounded=1;whiteSpace=wrap;html=1;fillColor=#d9d2e9ff;fontSize=11;" parent="1" vertex="1">
          <mxGeometry x="-70" y="400" width="80" height="40" as="geometry" />
        </mxCell>
        <mxCell id="CcEEF7Ig4hNzmsdr6lzL-11" value="" style="rounded=1;whiteSpace=wrap;html=1;fillColor=#fce5cdff;" parent="1" vertex="1">
          <mxGeometry x="70" y="380" width="80" height="40" as="geometry" />
        </mxCell>
        <mxCell id="CcEEF7Ig4hNzmsdr6lzL-12" value="" style="rounded=1;whiteSpace=wrap;html=1;fillColor=#fce5cdff;" parent="1" vertex="1">
          <mxGeometry x="80" y="390" width="80" height="40" as="geometry" />
        </mxCell>
        <mxCell id="Dwi4WkcWEXnGdp3cXi5k-61" style="edgeStyle=orthogonalEdgeStyle;curved=1;orthogonalLoop=1;jettySize=auto;html=1;exitX=0.25;exitY=1;exitDx=0;exitDy=0;entryX=0.5;entryY=1;entryDx=0;entryDy=0;fontColor=#674ea7;endArrow=block;endFill=1;strokeColor=#674ea7;strokeWidth=2;verticalAlign=middle;" parent="1" source="CcEEF7Ig4hNzmsdr6lzL-13" target="CcEEF7Ig4hNzmsdr6lzL-10" edge="1">
          <mxGeometry relative="1" as="geometry" />
        </mxCell>
        <mxCell id="CcEEF7Ig4hNzmsdr6lzL-13" value="&lt;font size=&quot;1&quot;&gt;&lt;b style=&quot;font-size: 12px&quot;&gt;Prod S2DS&lt;/b&gt;&lt;/font&gt;" style="rounded=1;whiteSpace=wrap;html=1;fillColor=#fce5cdff;fontSize=11;" parent="1" vertex="1">
          <mxGeometry x="90" y="400" width="80" height="40" as="geometry" />
        </mxCell>
        <mxCell id="CcEEF7Ig4hNzmsdr6lzL-15" value="&lt;b&gt;3: REQ&lt;/b&gt;" style="rounded=0;orthogonalLoop=1;jettySize=auto;exitX=0;exitY=0.5;exitDx=0;exitDy=0;entryX=0.5;entryY=0;entryDx=0;entryDy=0;endArrow=block;endFill=1;strokeWidth=2;horizontal=1;verticalAlign=middle;labelBorderColor=none;fontFamily=Helvetica;html=1;labelPosition=center;verticalLabelPosition=middle;align=center;" parent="1" source="CcEEF7Ig4hNzmsdr6lzL-14" target="CcEEF7Ig4hNzmsdr6lzL-6" edge="1">
          <mxGeometry x="-0.4173" y="1" relative="1" as="geometry">
            <mxPoint as="offset" />
          </mxGeometry>
        </mxCell>
        <mxCell id="Dwi4WkcWEXnGdp3cXi5k-10" style="edgeStyle=orthogonalEdgeStyle;rounded=0;orthogonalLoop=1;jettySize=auto;html=1;exitX=0.5;exitY=0;exitDx=0;exitDy=0;verticalAlign=middle;entryX=0.5;entryY=0;entryDx=0;entryDy=0;" parent="1" source="CcEEF7Ig4hNzmsdr6lzL-14" target="CcEEF7Ig4hNzmsdr6lzL-14" edge="1">
          <mxGeometry relative="1" as="geometry">
            <mxPoint x="280" y="40" as="targetPoint" />
          </mxGeometry>
        </mxCell>
        <mxCell id="CcEEF7Ig4hNzmsdr6lzL-14" value="&lt;b style=&quot;font-size: 11px;&quot;&gt;S2UC&lt;/b&gt;" style="rounded=1;whiteSpace=wrap;html=1;fontSize=11;fillColor=#e69138ff;" parent="1" vertex="1">
          <mxGeometry x="260" y="150" width="80" height="40" as="geometry" />
        </mxCell>
        <mxCell id="CcEEF7Ig4hNzmsdr6lzL-16" style="rounded=0;orthogonalLoop=1;jettySize=auto;html=1;exitX=0.5;exitY=1;exitDx=0;exitDy=0;entryX=0.5;entryY=0;entryDx=0;entryDy=0;endArrow=block;endFill=1;strokeWidth=2;" parent="1" source="CcEEF7Ig4hNzmsdr6lzL-6" target="CcEEF7Ig4hNzmsdr6lzL-12" edge="1">
          <mxGeometry relative="1" as="geometry">
            <mxPoint x="160" y="260" as="sourcePoint" />
            <mxPoint x="60" y="320" as="targetPoint" />
          </mxGeometry>
        </mxCell>
        <mxCell id="Dwi4WkcWEXnGdp3cXi5k-4" value="&lt;b&gt;4: ReqLstn&lt;/b&gt;" style="edgeLabel;html=1;align=center;verticalAlign=middle;resizable=0;points=[];" parent="CcEEF7Ig4hNzmsdr6lzL-16" vertex="1" connectable="0">
          <mxGeometry x="-0.2509" y="-2" relative="1" as="geometry">
            <mxPoint x="2" y="-9" as="offset" />
          </mxGeometry>
        </mxCell>
        <mxCell id="CcEEF7Ig4hNzmsdr6lzL-17" style="orthogonalLoop=1;jettySize=auto;html=1;endArrow=block;endFill=1;strokeWidth=2;dashed=1;curved=1;entryX=0.75;entryY=1;entryDx=0;entryDy=0;" parent="1" target="CcEEF7Ig4hNzmsdr6lzL-6" edge="1">
          <mxGeometry relative="1" as="geometry">
            <mxPoint x="140" y="390" as="sourcePoint" />
            <mxPoint x="140" y="230" as="targetPoint" />
            <Array as="points">
              <mxPoint x="180" y="350" />
            </Array>
          </mxGeometry>
        </mxCell>
        <mxCell id="Dwi4WkcWEXnGdp3cXi5k-5" value="&lt;b&gt;5: RESP&lt;/b&gt;" style="edgeLabel;html=1;align=center;verticalAlign=middle;resizable=0;points=[];" parent="CcEEF7Ig4hNzmsdr6lzL-17" vertex="1" connectable="0">
          <mxGeometry x="-0.1313" y="14" relative="1" as="geometry">
            <mxPoint x="-6" y="23" as="offset" />
          </mxGeometry>
        </mxCell>
        <mxCell id="CcEEF7Ig4hNzmsdr6lzL-18" style="orthogonalLoop=1;jettySize=auto;html=1;endArrow=block;endFill=1;strokeWidth=2;dashed=1;fillColor=#ffe6cc;strokeColor=#b45f06;curved=1;dashPattern=1 1;exitX=0.25;exitY=1;exitDx=0;exitDy=0;" parent="1" source="CcEEF7Ig4hNzmsdr6lzL-6" edge="1">
          <mxGeometry relative="1" as="geometry">
            <mxPoint x="100" y="230" as="sourcePoint" />
            <mxPoint x="100" y="390" as="targetPoint" />
            <Array as="points">
              <mxPoint x="60" y="350" />
            </Array>
          </mxGeometry>
        </mxCell>
        <mxCell id="Dwi4WkcWEXnGdp3cXi5k-15" value="&lt;b&gt;&lt;font color=&quot;#b45f06&quot;&gt;12: UpdTargets&lt;/font&gt;&lt;/b&gt;" style="edgeLabel;html=1;align=center;verticalAlign=middle;resizable=0;points=[];" parent="CcEEF7Ig4hNzmsdr6lzL-18" vertex="1" connectable="0">
          <mxGeometry x="-0.2036" y="11" relative="1" as="geometry">
            <mxPoint x="-6" y="1" as="offset" />
          </mxGeometry>
        </mxCell>
        <mxCell id="CcEEF7Ig4hNzmsdr6lzL-19" style="rounded=0;orthogonalLoop=1;jettySize=auto;html=1;exitX=1;exitY=0.5;exitDx=0;exitDy=0;entryX=0;entryY=0.5;entryDx=0;entryDy=0;endArrow=block;endFill=1;strokeWidth=2;" parent="1" source="CcEEF7Ig4hNzmsdr6lzL-7" target="CcEEF7Ig4hNzmsdr6lzL-6" edge="1">
          <mxGeometry relative="1" as="geometry">
            <mxPoint x="10" y="245.13" as="sourcePoint" />
            <mxPoint x="10" y="405.13" as="targetPoint" />
          </mxGeometry>
        </mxCell>
        <mxCell id="Dwi4WkcWEXnGdp3cXi5k-7" value="&lt;b&gt;7: Hello&lt;/b&gt;" style="edgeLabel;html=1;align=center;verticalAlign=middle;resizable=0;points=[];" parent="CcEEF7Ig4hNzmsdr6lzL-19" vertex="1" connectable="0">
          <mxGeometry x="-0.1599" relative="1" as="geometry">
            <mxPoint y="-10" as="offset" />
          </mxGeometry>
        </mxCell>
        <mxCell id="CcEEF7Ig4hNzmsdr6lzL-20" style="orthogonalLoop=1;jettySize=auto;html=1;endArrow=block;endFill=1;strokeWidth=2;dashed=1;entryX=0.75;entryY=0;entryDx=0;entryDy=0;exitX=0;exitY=0.25;exitDx=0;exitDy=0;curved=1;" parent="1" source="CcEEF7Ig4hNzmsdr6lzL-6" target="CcEEF7Ig4hNzmsdr6lzL-7" edge="1">
          <mxGeometry relative="1" as="geometry">
            <mxPoint x="150" y="400" as="sourcePoint" />
            <mxPoint x="150" y="240" as="targetPoint" />
            <Array as="points">
              <mxPoint x="40" y="230" />
            </Array>
          </mxGeometry>
        </mxCell>
        <mxCell id="Dwi4WkcWEXnGdp3cXi5k-8" value="&lt;b&gt;8: RESP&lt;/b&gt;" style="edgeLabel;html=1;align=center;verticalAlign=middle;resizable=0;points=[];" parent="CcEEF7Ig4hNzmsdr6lzL-20" vertex="1" connectable="0">
          <mxGeometry x="0.0175" y="12" relative="1" as="geometry">
            <mxPoint y="-4" as="offset" />
          </mxGeometry>
        </mxCell>
        <mxCell id="CcEEF7Ig4hNzmsdr6lzL-21" style="rounded=0;orthogonalLoop=1;jettySize=auto;html=1;entryX=0.5;entryY=0;entryDx=0;entryDy=0;endArrow=block;endFill=1;strokeWidth=2;exitX=0.5;exitY=1;exitDx=0;exitDy=0;" parent="1" source="CcEEF7Ig4hNzmsdr6lzL-7" edge="1">
          <mxGeometry relative="1" as="geometry">
            <mxPoint x="-40" y="310" as="sourcePoint" />
            <mxPoint x="-40.25" y="390" as="targetPoint" />
          </mxGeometry>
        </mxCell>
        <mxCell id="CcEEF7Ig4hNzmsdr6lzL-22" style="orthogonalLoop=1;jettySize=auto;html=1;endArrow=block;endFill=1;strokeWidth=2;dashed=1;entryX=0.25;entryY=0;entryDx=0;entryDy=0;exitX=0;exitY=0.25;exitDx=0;exitDy=0;strokeColor=#B45F06;curved=1;dashPattern=1 1;" parent="1" source="CcEEF7Ig4hNzmsdr6lzL-14" target="CcEEF7Ig4hNzmsdr6lzL-6" edge="1">
          <mxGeometry relative="1" as="geometry">
            <mxPoint x="10" y="200" as="sourcePoint" />
            <mxPoint x="130" y="220" as="targetPoint" />
            <Array as="points">
              <mxPoint x="140" y="160" />
            </Array>
          </mxGeometry>
        </mxCell>
        <mxCell id="Dwi4WkcWEXnGdp3cXi5k-13" value="&lt;b&gt;&lt;font color=&quot;#b45f06&quot;&gt;11: UpdTargets&lt;/font&gt;&lt;/b&gt;" style="edgeLabel;html=1;align=center;verticalAlign=middle;resizable=0;points=[];labelBorderColor=none;" parent="CcEEF7Ig4hNzmsdr6lzL-22" vertex="1" connectable="0">
          <mxGeometry x="-0.2689" y="19" relative="1" as="geometry">
            <mxPoint x="16" y="-9" as="offset" />
          </mxGeometry>
        </mxCell>
        <mxCell id="CcEEF7Ig4hNzmsdr6lzL-24" value="&lt;b&gt;9: SendLstn&lt;/b&gt;" style="orthogonalLoop=1;jettySize=auto;html=1;endArrow=block;endFill=1;strokeWidth=2;dashed=1;curved=1;exitX=1;exitY=0.5;exitDx=0;exitDy=0;entryX=0.25;entryY=1;entryDx=0;entryDy=0;spacing=0;" parent="1" source="CcEEF7Ig4hNzmsdr6lzL-6" target="CcEEF7Ig4hNzmsdr6lzL-14" edge="1">
          <mxGeometry x="0.3491" y="20" relative="1" as="geometry">
            <mxPoint x="200" y="250" as="sourcePoint" />
            <mxPoint x="280" y="110" as="targetPoint" />
            <Array as="points">
              <mxPoint x="280" y="285" />
            </Array>
            <mxPoint as="offset" />
          </mxGeometry>
        </mxCell>
        <mxCell id="Dwi4WkcWEXnGdp3cXi5k-16" value="&lt;b&gt;Facility 1 (F1)&lt;/b&gt;" style="text;html=1;align=center;verticalAlign=middle;resizable=0;points=[];autosize=1;strokeColor=none;" parent="1" vertex="1">
          <mxGeometry x="-100" y="200" width="90" height="20" as="geometry" />
        </mxCell>
        <mxCell id="Dwi4WkcWEXnGdp3cXi5k-17" value="" style="rounded=1;whiteSpace=wrap;html=1;strokeWidth=2;fillColor=none;" parent="1" vertex="1">
          <mxGeometry x="400" y="190" width="320" height="280" as="geometry" />
        </mxCell>
        <mxCell id="Dwi4WkcWEXnGdp3cXi5k-18" value="&lt;b style=&quot;font-size: 11px;&quot;&gt;Cons S2CS&lt;/b&gt;" style="rounded=1;whiteSpace=wrap;html=1;fillColor=#f6b26bff;fontSize=11;" parent="1" vertex="1">
          <mxGeometry x="440" y="269.13" width="80" height="40" as="geometry" />
        </mxCell>
        <mxCell id="Dwi4WkcWEXnGdp3cXi5k-19" value="&lt;b style=&quot;font-size: 11px;&quot;&gt;ConsApp Controller&lt;/b&gt;" style="rounded=1;whiteSpace=wrap;html=1;fillColor=#b4a7d6ff;fontSize=11;" parent="1" vertex="1">
          <mxGeometry x="600" y="269.13" width="80" height="40" as="geometry" />
        </mxCell>
        <mxCell id="Dwi4WkcWEXnGdp3cXi5k-20" value="" style="rounded=1;whiteSpace=wrap;html=1;fillColor=#d9d2e9ff;" parent="1" vertex="1">
          <mxGeometry x="590" y="380" width="80" height="40" as="geometry" />
        </mxCell>
        <mxCell id="Dwi4WkcWEXnGdp3cXi5k-21" value="" style="rounded=1;whiteSpace=wrap;html=1;fillColor=#d9d2e9ff;" parent="1" vertex="1">
          <mxGeometry x="600" y="390" width="80" height="40" as="geometry" />
        </mxCell>
        <mxCell id="Dwi4WkcWEXnGdp3cXi5k-58" style="edgeStyle=orthogonalEdgeStyle;curved=1;orthogonalLoop=1;jettySize=auto;html=1;exitX=0.5;exitY=1;exitDx=0;exitDy=0;entryX=0.75;entryY=1;entryDx=0;entryDy=0;fontColor=#674ea7;endArrow=block;endFill=1;strokeColor=#674ea7;strokeWidth=2;verticalAlign=middle;" parent="1" source="Dwi4WkcWEXnGdp3cXi5k-22" target="Dwi4WkcWEXnGdp3cXi5k-25" edge="1">
          <mxGeometry relative="1" as="geometry" />
        </mxCell>
        <mxCell id="Dwi4WkcWEXnGdp3cXi5k-22" value="&lt;b style=&quot;font-size: 11px;&quot;&gt;ConsApp&lt;/b&gt;" style="rounded=1;whiteSpace=wrap;html=1;fillColor=#d9d2e9ff;fontSize=11;" parent="1" vertex="1">
          <mxGeometry x="610" y="400" width="80" height="40" as="geometry" />
        </mxCell>
        <mxCell id="Dwi4WkcWEXnGdp3cXi5k-23" value="" style="rounded=1;whiteSpace=wrap;html=1;fillColor=#fce5cdff;" parent="1" vertex="1">
          <mxGeometry x="430" y="380" width="80" height="40" as="geometry" />
        </mxCell>
        <mxCell id="Dwi4WkcWEXnGdp3cXi5k-24" value="" style="rounded=1;whiteSpace=wrap;html=1;fillColor=#fce5cdff;" parent="1" vertex="1">
          <mxGeometry x="440" y="390" width="80" height="40" as="geometry" />
        </mxCell>
        <mxCell id="Dwi4WkcWEXnGdp3cXi5k-60" style="edgeStyle=orthogonalEdgeStyle;curved=1;orthogonalLoop=1;jettySize=auto;html=1;exitX=0.25;exitY=1;exitDx=0;exitDy=0;entryX=0.75;entryY=1;entryDx=0;entryDy=0;fontColor=#674ea7;endArrow=block;endFill=1;strokeColor=#674ea7;strokeWidth=2;verticalAlign=middle;" parent="1" source="Dwi4WkcWEXnGdp3cXi5k-25" target="CcEEF7Ig4hNzmsdr6lzL-13" edge="1">
          <mxGeometry relative="1" as="geometry">
            <Array as="points">
              <mxPoint x="430" y="460" />
              <mxPoint x="190" y="460" />
            </Array>
          </mxGeometry>
        </mxCell>
        <mxCell id="Dwi4WkcWEXnGdp3cXi5k-62" value="&lt;b&gt;14: Connect and Proxy&lt;/b&gt;" style="edgeLabel;html=1;align=center;verticalAlign=middle;resizable=0;points=[];fontColor=#674ea7;" parent="Dwi4WkcWEXnGdp3cXi5k-60" vertex="1" connectable="0">
          <mxGeometry x="0.0563" relative="1" as="geometry">
            <mxPoint x="-2" y="11" as="offset" />
          </mxGeometry>
        </mxCell>
        <mxCell id="Dwi4WkcWEXnGdp3cXi5k-25" value="&lt;font size=&quot;1&quot;&gt;&lt;b style=&quot;font-size: 12px&quot;&gt;Cons S2DS&lt;/b&gt;&lt;/font&gt;" style="rounded=1;whiteSpace=wrap;html=1;fillColor=#fce5cdff;fontSize=11;" parent="1" vertex="1">
          <mxGeometry x="450" y="400" width="80" height="40" as="geometry" />
        </mxCell>
        <mxCell id="Dwi4WkcWEXnGdp3cXi5k-26" style="rounded=0;orthogonalLoop=1;jettySize=auto;html=1;exitX=0.5;exitY=1;exitDx=0;exitDy=0;entryX=0.5;entryY=0;entryDx=0;entryDy=0;endArrow=block;endFill=1;strokeWidth=2;" parent="1" source="Dwi4WkcWEXnGdp3cXi5k-18" target="Dwi4WkcWEXnGdp3cXi5k-24" edge="1">
          <mxGeometry relative="1" as="geometry">
            <mxPoint x="680" y="260" as="sourcePoint" />
            <mxPoint x="580" y="320" as="targetPoint" />
          </mxGeometry>
        </mxCell>
        <mxCell id="Dwi4WkcWEXnGdp3cXi5k-27" value="&lt;b&gt;4: ReqLstn&lt;/b&gt;" style="edgeLabel;html=1;align=center;verticalAlign=middle;resizable=0;points=[];" parent="Dwi4WkcWEXnGdp3cXi5k-26" vertex="1" connectable="0">
          <mxGeometry x="-0.2509" y="-2" relative="1" as="geometry">
            <mxPoint x="2" y="-9" as="offset" />
          </mxGeometry>
        </mxCell>
        <mxCell id="Dwi4WkcWEXnGdp3cXi5k-37" value="&lt;b&gt;Facility 2 (F2)&lt;/b&gt;" style="text;html=1;align=center;verticalAlign=middle;resizable=0;points=[];autosize=1;strokeColor=none;" parent="1" vertex="1">
          <mxGeometry x="610" y="200" width="90" height="20" as="geometry" />
        </mxCell>
        <mxCell id="Dwi4WkcWEXnGdp3cXi5k-38" style="orthogonalLoop=1;jettySize=auto;html=1;endArrow=block;endFill=1;strokeWidth=2;dashed=1;curved=1;entryX=0.25;entryY=1;entryDx=0;entryDy=0;" parent="1" target="Dwi4WkcWEXnGdp3cXi5k-18" edge="1">
          <mxGeometry relative="1" as="geometry">
            <mxPoint x="460" y="390" as="sourcePoint" />
            <mxPoint x="460" y="270" as="targetPoint" />
            <Array as="points">
              <mxPoint x="420" y="350" />
            </Array>
          </mxGeometry>
        </mxCell>
        <mxCell id="Dwi4WkcWEXnGdp3cXi5k-39" value="&lt;b&gt;5: RESP&lt;/b&gt;" style="edgeLabel;html=1;align=center;verticalAlign=middle;resizable=0;points=[];" parent="Dwi4WkcWEXnGdp3cXi5k-38" vertex="1" connectable="0">
          <mxGeometry x="-0.1313" y="14" relative="1" as="geometry">
            <mxPoint x="26" y="3" as="offset" />
          </mxGeometry>
        </mxCell>
        <mxCell id="Dwi4WkcWEXnGdp3cXi5k-40" style="orthogonalLoop=1;jettySize=auto;html=1;endArrow=block;endFill=1;strokeWidth=2;dashed=1;fillColor=#ffe6cc;strokeColor=#b45f06;curved=1;dashPattern=1 1;exitX=0.75;exitY=1;exitDx=0;exitDy=0;" parent="1" source="Dwi4WkcWEXnGdp3cXi5k-18" edge="1">
          <mxGeometry relative="1" as="geometry">
            <mxPoint x="510" y="330" as="sourcePoint" />
            <mxPoint x="500" y="390" as="targetPoint" />
            <Array as="points">
              <mxPoint x="540" y="350" />
            </Array>
          </mxGeometry>
        </mxCell>
        <mxCell id="Dwi4WkcWEXnGdp3cXi5k-41" value="&lt;b&gt;&lt;font color=&quot;#b45f06&quot;&gt;12: UpdTargets&lt;/font&gt;&lt;/b&gt;" style="edgeLabel;html=1;align=center;verticalAlign=middle;resizable=0;points=[];" parent="Dwi4WkcWEXnGdp3cXi5k-40" vertex="1" connectable="0">
          <mxGeometry x="-0.2036" y="11" relative="1" as="geometry">
            <mxPoint x="-9" y="18" as="offset" />
          </mxGeometry>
        </mxCell>
        <mxCell id="Dwi4WkcWEXnGdp3cXi5k-42" value="&lt;b&gt;3: REQ&lt;/b&gt;" style="rounded=0;orthogonalLoop=1;jettySize=auto;exitX=1;exitY=0.5;exitDx=0;exitDy=0;entryX=0.5;entryY=0;entryDx=0;entryDy=0;endArrow=block;endFill=1;strokeWidth=2;horizontal=1;verticalAlign=middle;labelBorderColor=none;fontFamily=Helvetica;html=1;labelPosition=center;verticalLabelPosition=middle;align=center;" parent="1" source="CcEEF7Ig4hNzmsdr6lzL-14" target="Dwi4WkcWEXnGdp3cXi5k-18" edge="1">
          <mxGeometry x="-0.4173" y="-1" relative="1" as="geometry">
            <mxPoint as="offset" />
            <mxPoint x="380" y="170" as="sourcePoint" />
            <mxPoint x="310" y="240" as="targetPoint" />
          </mxGeometry>
        </mxCell>
        <mxCell id="Dwi4WkcWEXnGdp3cXi5k-43" style="orthogonalLoop=1;jettySize=auto;html=1;endArrow=block;endFill=1;strokeWidth=2;dashed=1;entryX=0.75;entryY=0;entryDx=0;entryDy=0;exitX=1;exitY=0.25;exitDx=0;exitDy=0;strokeColor=#B45F06;curved=1;dashPattern=1 1;" parent="1" source="CcEEF7Ig4hNzmsdr6lzL-14" target="Dwi4WkcWEXnGdp3cXi5k-18" edge="1">
          <mxGeometry relative="1" as="geometry">
            <mxPoint x="425" y="110" as="sourcePoint" />
            <mxPoint x="305" y="250" as="targetPoint" />
            <Array as="points">
              <mxPoint x="460" y="160" />
            </Array>
          </mxGeometry>
        </mxCell>
        <mxCell id="Dwi4WkcWEXnGdp3cXi5k-44" value="&lt;b&gt;&lt;font color=&quot;#b45f06&quot;&gt;11: UpdTargets&lt;/font&gt;&lt;/b&gt;" style="edgeLabel;html=1;align=center;verticalAlign=middle;resizable=0;points=[];labelBorderColor=none;" parent="Dwi4WkcWEXnGdp3cXi5k-43" vertex="1" connectable="0">
          <mxGeometry x="-0.2689" y="19" relative="1" as="geometry">
            <mxPoint x="-26" y="29" as="offset" />
          </mxGeometry>
        </mxCell>
        <mxCell id="Dwi4WkcWEXnGdp3cXi5k-47" style="rounded=0;orthogonalLoop=1;jettySize=auto;html=1;endArrow=block;endFill=1;strokeWidth=2;entryX=1;entryY=0.5;entryDx=0;entryDy=0;exitX=0;exitY=0.5;exitDx=0;exitDy=0;" parent="1" source="Dwi4WkcWEXnGdp3cXi5k-19" target="Dwi4WkcWEXnGdp3cXi5k-18" edge="1">
          <mxGeometry relative="1" as="geometry">
            <mxPoint x="600" y="288.85" as="sourcePoint" />
            <mxPoint x="530" y="310" as="targetPoint" />
          </mxGeometry>
        </mxCell>
        <mxCell id="Dwi4WkcWEXnGdp3cXi5k-48" value="&lt;b&gt;7: Hello&lt;/b&gt;" style="edgeLabel;html=1;align=center;verticalAlign=middle;resizable=0;points=[];" parent="Dwi4WkcWEXnGdp3cXi5k-47" vertex="1" connectable="0">
          <mxGeometry x="-0.1599" relative="1" as="geometry">
            <mxPoint y="-10" as="offset" />
          </mxGeometry>
        </mxCell>
        <mxCell id="Dwi4WkcWEXnGdp3cXi5k-49" style="orthogonalLoop=1;jettySize=auto;html=1;endArrow=block;endFill=1;strokeWidth=2;dashed=1;entryX=0.25;entryY=0;entryDx=0;entryDy=0;exitX=1;exitY=0.25;exitDx=0;exitDy=0;curved=1;" parent="1" source="Dwi4WkcWEXnGdp3cXi5k-18" target="Dwi4WkcWEXnGdp3cXi5k-19" edge="1">
          <mxGeometry relative="1" as="geometry">
            <mxPoint x="520" y="220" as="sourcePoint" />
            <mxPoint x="640" y="230" as="targetPoint" />
            <Array as="points">
              <mxPoint x="560" y="230" />
            </Array>
          </mxGeometry>
        </mxCell>
        <mxCell id="Dwi4WkcWEXnGdp3cXi5k-50" value="&lt;b&gt;8: RESP&lt;/b&gt;" style="edgeLabel;html=1;align=center;verticalAlign=middle;resizable=0;points=[];" parent="Dwi4WkcWEXnGdp3cXi5k-49" vertex="1" connectable="0">
          <mxGeometry x="0.0175" y="12" relative="1" as="geometry">
            <mxPoint x="-10" y="15" as="offset" />
          </mxGeometry>
        </mxCell>
        <mxCell id="Dwi4WkcWEXnGdp3cXi5k-52" value="&lt;b&gt;9: SendLstn&lt;/b&gt;" style="orthogonalLoop=1;jettySize=auto;html=1;endArrow=block;endFill=1;strokeWidth=2;dashed=1;entryX=0.75;entryY=1;entryDx=0;entryDy=0;curved=1;exitX=0;exitY=0.5;exitDx=0;exitDy=0;spacing=0;" parent="1" source="Dwi4WkcWEXnGdp3cXi5k-18" target="CcEEF7Ig4hNzmsdr6lzL-14" edge="1">
          <mxGeometry x="0.3491" y="-20" relative="1" as="geometry">
            <mxPoint x="260" y="290" as="sourcePoint" />
            <mxPoint x="360" y="150" as="targetPoint" />
            <Array as="points">
              <mxPoint x="320" y="285" />
            </Array>
            <mxPoint as="offset" />
          </mxGeometry>
        </mxCell>
        <mxCell id="Dwi4WkcWEXnGdp3cXi5k-54" style="rounded=0;orthogonalLoop=1;jettySize=auto;html=1;entryX=0.5;entryY=0;entryDx=0;entryDy=0;endArrow=block;endFill=1;strokeWidth=2;exitX=0.5;exitY=1;exitDx=0;exitDy=0;" parent="1" source="Dwi4WkcWEXnGdp3cXi5k-19" edge="1">
          <mxGeometry relative="1" as="geometry">
            <mxPoint x="640" y="320" as="sourcePoint" />
            <mxPoint x="639.72" y="390" as="targetPoint" />
          </mxGeometry>
        </mxCell>
        <mxCell id="Dwi4WkcWEXnGdp3cXi5k-56" style="orthogonalLoop=1;jettySize=auto;html=1;endArrow=block;endFill=1;strokeWidth=2;fillColor=#ffe6cc;curved=1;exitX=0.75;exitY=1;exitDx=0;exitDy=0;strokeColor=#674ea7;" parent="1" source="Dwi4WkcWEXnGdp3cXi5k-19" edge="1">
          <mxGeometry relative="1" as="geometry">
            <mxPoint x="660" y="270" as="sourcePoint" />
            <mxPoint x="660" y="390" as="targetPoint" />
            <Array as="points">
              <mxPoint x="700" y="350" />
            </Array>
          </mxGeometry>
        </mxCell>
        <mxCell id="Dwi4WkcWEXnGdp3cXi5k-57" value="&lt;b&gt;&lt;font&gt;13: Start&lt;br&gt;Connection&lt;br&gt;&lt;/font&gt;&lt;/b&gt;" style="edgeLabel;html=1;align=center;verticalAlign=middle;resizable=0;points=[];fontColor=#674ea7;" parent="Dwi4WkcWEXnGdp3cXi5k-56" vertex="1" connectable="0">
          <mxGeometry x="-0.2036" y="11" relative="1" as="geometry">
            <mxPoint x="-27" y="6" as="offset" />
          </mxGeometry>
        </mxCell>
        <mxCell id="Dwi4WkcWEXnGdp3cXi5k-64" value="&lt;b&gt;15: Stream Data&lt;/b&gt;" style="edgeStyle=orthogonalEdgeStyle;curved=1;orthogonalLoop=1;jettySize=auto;html=1;exitX=1;exitY=0.5;exitDx=0;exitDy=0;entryX=0;entryY=0.5;entryDx=0;entryDy=0;fontColor=#674ea7;endArrow=block;endFill=1;strokeColor=#674ea7;strokeWidth=4;verticalAlign=middle;" parent="1" source="CcEEF7Ig4hNzmsdr6lzL-13" target="Dwi4WkcWEXnGdp3cXi5k-25" edge="1">
          <mxGeometry x="-0.1" y="10" relative="1" as="geometry">
            <mxPoint as="offset" />
          </mxGeometry>
        </mxCell>
        <mxCell id="Dwi4WkcWEXnGdp3cXi5k-63" style="edgeStyle=orthogonalEdgeStyle;curved=1;orthogonalLoop=1;jettySize=auto;html=1;exitX=1;exitY=0.5;exitDx=0;exitDy=0;entryX=0;entryY=0.5;entryDx=0;entryDy=0;fontColor=#674ea7;endArrow=block;endFill=1;strokeColor=#674ea7;strokeWidth=4;verticalAlign=middle;" parent="1" source="CcEEF7Ig4hNzmsdr6lzL-10" target="CcEEF7Ig4hNzmsdr6lzL-13" edge="1">
          <mxGeometry relative="1" as="geometry" />
        </mxCell>
        <mxCell id="Dwi4WkcWEXnGdp3cXi5k-65" style="edgeStyle=orthogonalEdgeStyle;curved=1;orthogonalLoop=1;jettySize=auto;html=1;exitX=1;exitY=0.5;exitDx=0;exitDy=0;fontColor=#674ea7;endArrow=block;endFill=1;strokeColor=#674ea7;strokeWidth=4;verticalAlign=middle;" parent="1" source="Dwi4WkcWEXnGdp3cXi5k-25" target="Dwi4WkcWEXnGdp3cXi5k-22" edge="1">
          <mxGeometry relative="1" as="geometry" />
        </mxCell>
        <mxCell id="Dwi4WkcWEXnGdp3cXi5k-1" value="&lt;b style=&quot;font-size: 11px&quot;&gt;User&lt;/b&gt;" style="rounded=1;whiteSpace=wrap;html=1;fontSize=11;fillColor=#7FA9D4;align=center;" parent="1" vertex="1">
          <mxGeometry x="260" y="30" width="80" height="40" as="geometry" />
        </mxCell>
        <mxCell id="Dwi4WkcWEXnGdp3cXi5k-9" value="&lt;b&gt;1: REQ&lt;/b&gt;" style="rounded=0;orthogonalLoop=1;jettySize=auto;exitX=0.5;exitY=1;exitDx=0;exitDy=0;entryX=0.5;entryY=0;entryDx=0;entryDy=0;endArrow=block;endFill=1;strokeWidth=2;horizontal=1;verticalAlign=middle;labelBorderColor=none;fontFamily=Helvetica;html=1;labelPosition=center;verticalLabelPosition=middle;align=center;strokeColor=#0066CC;fontColor=#0066CC;" parent="1" source="Dwi4WkcWEXnGdp3cXi5k-1" target="CcEEF7Ig4hNzmsdr6lzL-14" edge="1">
          <mxGeometry x="-0.5" relative="1" as="geometry">
            <mxPoint as="offset" />
            <mxPoint x="270" y="100" as="sourcePoint" />
            <mxPoint x="170" y="240" as="targetPoint" />
          </mxGeometry>
        </mxCell>
        <mxCell id="Dwi4WkcWEXnGdp3cXi5k-11" style="orthogonalLoop=1;jettySize=auto;html=1;endArrow=block;endFill=1;strokeWidth=2;dashed=1;curved=1;entryX=0.75;entryY=1;entryDx=0;entryDy=0;exitX=0.75;exitY=0;exitDx=0;exitDy=0;fontColor=#0066CC;strokeColor=#0066CC;" parent="1" source="CcEEF7Ig4hNzmsdr6lzL-14" target="Dwi4WkcWEXnGdp3cXi5k-1" edge="1">
          <mxGeometry relative="1" as="geometry">
            <mxPoint x="318" y="70" as="sourcePoint" />
            <mxPoint x="318" y="-50" as="targetPoint" />
            <Array as="points">
              <mxPoint x="358" y="110" />
            </Array>
          </mxGeometry>
        </mxCell>
        <mxCell id="Dwi4WkcWEXnGdp3cXi5k-12" value="&lt;b&gt;2: RESP&lt;/b&gt;" style="edgeLabel;html=1;align=center;verticalAlign=middle;resizable=0;points=[];fontColor=#0066CC;" parent="Dwi4WkcWEXnGdp3cXi5k-11" vertex="1" connectable="0">
          <mxGeometry x="-0.1313" y="14" relative="1" as="geometry">
            <mxPoint x="-6" y="22" as="offset" />
          </mxGeometry>
        </mxCell>
        <mxCell id="Dwi4WkcWEXnGdp3cXi5k-28" style="orthogonalLoop=1;jettySize=auto;html=1;endArrow=block;endFill=1;strokeWidth=2;dashed=1;entryX=0;entryY=0;entryDx=0;entryDy=0;exitX=0.25;exitY=0;exitDx=0;exitDy=0;strokeColor=#B45F06;curved=1;dashPattern=1 1;" parent="1" source="CcEEF7Ig4hNzmsdr6lzL-14" target="CcEEF7Ig4hNzmsdr6lzL-14" edge="1">
          <mxGeometry relative="1" as="geometry">
            <mxPoint x="220" y="-40" as="sourcePoint" />
            <mxPoint x="100" y="110" as="targetPoint" />
            <Array as="points">
              <mxPoint x="280" y="110" />
              <mxPoint x="220" y="110" />
              <mxPoint x="220" y="150" />
            </Array>
          </mxGeometry>
        </mxCell>
        <mxCell id="Dwi4WkcWEXnGdp3cXi5k-29" value="&lt;b&gt;&lt;font color=&quot;#b45f06&quot;&gt;10: Create&lt;br&gt;Connection &lt;br&gt;Map&lt;/font&gt;&lt;/b&gt;" style="edgeLabel;html=1;align=center;verticalAlign=middle;resizable=0;points=[];labelBorderColor=none;labelBackgroundColor=none;" parent="Dwi4WkcWEXnGdp3cXi5k-28" vertex="1" connectable="0">
          <mxGeometry x="-0.2689" y="19" relative="1" as="geometry">
            <mxPoint x="-66" y="11" as="offset" />
          </mxGeometry>
        </mxCell>
        <mxCell id="Dwi4WkcWEXnGdp3cXi5k-32" value="" style="shape=image;html=1;verticalAlign=top;verticalLabelPosition=bottom;labelBackgroundColor=#ffffff;imageAspect=0;aspect=fixed;image=https://cdn2.iconfinder.com/data/icons/people-80/96/Picture1-128.png;shadow=0;sketch=0;fontSize=16;fontColor=#674ea7;strokeColor=#000000;strokeWidth=10;fillColor=#7FA9D4;" parent="1" vertex="1">
          <mxGeometry x="326" y="34" width="12" height="12" as="geometry" />
        </mxCell>
        <mxCell id="Dwi4WkcWEXnGdp3cXi5k-34" value="&lt;b&gt;6: SendUUID&lt;/b&gt;" style="orthogonalLoop=1;jettySize=auto;endArrow=block;endFill=1;strokeWidth=1.9;horizontal=1;verticalAlign=middle;labelBorderColor=none;fontFamily=Helvetica;html=1;labelPosition=center;verticalLabelPosition=middle;align=center;exitX=0;exitY=0.5;exitDx=0;exitDy=0;entryX=0.5;entryY=0;entryDx=0;entryDy=0;dashed=1;dashPattern=1 4;curved=1;strokeColor=#0066CC;fontColor=#0066CC;" parent="1" source="Dwi4WkcWEXnGdp3cXi5k-1" target="CcEEF7Ig4hNzmsdr6lzL-7" edge="1">
          <mxGeometry x="-0.6121" y="-3" relative="1" as="geometry">
            <mxPoint as="offset" />
            <mxPoint x="170" as="sourcePoint" />
            <mxPoint x="50" y="60" as="targetPoint" />
            <Array as="points" />
          </mxGeometry>
        </mxCell>
        <mxCell id="Dwi4WkcWEXnGdp3cXi5k-35" value="&lt;b&gt;6: SendUUID&lt;/b&gt;" style="orthogonalLoop=1;jettySize=auto;endArrow=block;endFill=1;strokeWidth=1.9;horizontal=1;verticalAlign=middle;labelBorderColor=none;fontFamily=Helvetica;html=1;labelPosition=center;verticalLabelPosition=middle;align=center;exitX=1;exitY=0.5;exitDx=0;exitDy=0;entryX=0.5;entryY=0;entryDx=0;entryDy=0;dashed=1;dashPattern=1 4;curved=1;strokeColor=#0066CC;fontColor=#0066CC;" parent="1" source="Dwi4WkcWEXnGdp3cXi5k-1" target="Dwi4WkcWEXnGdp3cXi5k-19" edge="1">
          <mxGeometry x="-0.6121" y="3" relative="1" as="geometry">
            <mxPoint as="offset" />
            <mxPoint x="530" y="-40" as="sourcePoint" />
            <mxPoint x="270" y="260" as="targetPoint" />
            <Array as="points" />
          </mxGeometry>
        </mxCell>
        <mxCell id="SAxluDQnfQ2hZYHsXZwe-1" value="" style="shape=waypoint;sketch=0;size=6;pointerEvents=1;points=[];fillColor=none;resizable=0;rotatable=0;perimeter=centerPerimeter;snapToPoint=1;noLabel=1;fontColor=none;strokeColor=none;" parent="1" vertex="1">
          <mxGeometry x="-120" y="30" width="40" height="40" as="geometry" />
        </mxCell>
        <mxCell id="SAxluDQnfQ2hZYHsXZwe-2" value="" style="shape=waypoint;sketch=0;size=6;pointerEvents=1;points=[];fillColor=none;resizable=0;rotatable=0;perimeter=centerPerimeter;snapToPoint=1;noLabel=1;fontColor=none;strokeColor=none;" parent="1" vertex="1">
          <mxGeometry x="680" y="30" width="40" height="40" as="geometry" />
        </mxCell>
        <mxCell id="SAxluDQnfQ2hZYHsXZwe-3" value="" style="shape=waypoint;sketch=0;size=6;pointerEvents=1;points=[];fillColor=none;resizable=0;rotatable=0;perimeter=centerPerimeter;snapToPoint=1;noLabel=1;fontColor=none;strokeColor=none;" parent="1" vertex="1">
          <mxGeometry x="-120" y="450" width="40" height="40" as="geometry" />
        </mxCell>
        <mxCell id="SAxluDQnfQ2hZYHsXZwe-4" value="" style="shape=waypoint;sketch=0;size=6;pointerEvents=1;points=[];fillColor=none;resizable=0;rotatable=0;perimeter=centerPerimeter;snapToPoint=1;noLabel=1;fontColor=none;strokeColor=none;" parent="1" vertex="1">
          <mxGeometry x="680" y="450" width="40" height="40" as="geometry" />
        </mxCell>
      </root>
    </mxGraphModel>
  </diagram>
</mxfile>
